<svg xmlns="http://www.w3.org/2000/svg" width="17" height="25" viewBox="0 0 17 25"><path d="M11.679.286a1.37 1.37 0 00-.27.035c-.35.093-.683.321-.889.669L.357 18.203a.555.555 0 00-.078.295l.183 5.686a.555.555 0 00.818.469l5.121-2.674a.557.557 0 00.227-.208L16.8 4.557a1.444 1.444 0 00-.532-1.979L12.506.46a1.418 1.418 0 00-.827-.174zm.157 1.103a.288.288 0 01.121.035l3.763 2.118c.172.097.22.285.122.451l-9.763 16.51-4.337-2.447 9.736-16.502a.343.343 0 01.218-.156.395.395 0 01.14-.01zM1.42 19.149l3.849 2.17-3.719 1.945-.13-4.115z"/></svg>