<?xml version="1.0" encoding="UTF-8"?>
<svg width="23px" height="17px" viewBox="0 0 23 17" version="1.1" xmlns="http://www.w3.org/2000/svg" xmlns:xlink="http://www.w3.org/1999/xlink">
    <!-- Generator: Sketch 59.1 (86144) - https://sketch.com -->
    <title>Group 2</title>
    <desc>Created with Sketch.</desc>
    <g id="Desktop" stroke="none" stroke-width="1" fill="none" fill-rule="evenodd">
        <g id="Desktop---Choose-initials" transform="translate(-902.000000, -836.000000)" fill="#FFFFFF" fill-rule="nonzero">
            <g id="Group" transform="translate(447.000000, 701.000000)">
                <g id="Group-2" transform="translate(455.000000, 135.000000)">
                    <path d="M20.0966907,0 C21.7020198,0 23,1.32930676 23,2.97509025 L23,14.0249097 C23,15.666803 21.6998735,17 20.0966907,17 L9.29042749,17 C8.50177899,17 7.54382036,16.5921648 6.9874158,16.0229887 L0.338383359,9.22133578 C-0.0510601893,8.82295303 -0.0507665393,8.17674658 0.338383359,7.77866422 L6.9874158,0.977011317 C7.54735726,0.404217084 8.49813189,0 9.29042749,0 L20.0966907,0 Z M20.0966907,1.275 L9.29042749,1.275 C8.82823195,1.275 8.19461111,1.5452286 7.86874706,1.87857246 L1.39589595,8.5 L7.86874706,15.1214275 C8.19052737,15.4505939 8.83111912,15.725 9.29042749,15.725 L20.0966907,15.725 C21.0103337,15.725 21.7536094,14.9638437 21.7536094,14.0249097 L21.7536094,2.97509025 C21.7536094,2.03154965 21.0117816,1.275 20.0966907,1.275 Z M17.7445179,4.84937242 L17.7824108,4.882 L17.8188819,4.92554124 C18.0100367,5.19847905 17.9836952,5.58298749 17.7444065,5.82776875 L15.1434108,8.487 L17.7444065,11.1472096 C17.9852898,11.3936221 18.0123151,11.7748211 17.8195176,12.0488847 L17.7844108,12.089 L17.7450579,12.1249556 C17.4782445,12.3204982 17.1023639,12.293552 16.8630752,12.0487707 L14.2624108,9.388 L11.6629959,12.0487707 C11.4221126,12.2951832 11.0494672,12.3228289 10.7815532,12.1256059 L10.7394108,12.088 L10.7071892,12.0494371 C10.5160344,11.7764993 10.542376,11.3919908 10.7816646,11.1472096 L13.3814108,8.487 L10.7816646,5.82776875 C10.5407814,5.58135628 10.513756,5.20015727 10.7065535,4.92609364 L10.7404108,4.884 L10.7810132,4.85002269 C11.0478267,4.65448018 11.4237072,4.68142634 11.6629959,4.9262076 L14.2624108,7.586 L16.8630752,4.9262076 C17.1039585,4.67979514 17.4766039,4.65214947 17.7445179,4.84937242 Z M17.8296192,12.0515281 L17.747102,12.1359394 L17.747102,12.1359394 L17.7844108,12.089 L17.8296192,12.0515281 Z M10.6964519,12.0515281 L10.7394108,12.088 L10.7789691,12.1359394 L10.6964519,12.0515281 L10.6964519,12.0515281 Z M10.7789691,4.83903893 L10.7404108,4.884 L10.6964519,4.92345024 L10.7789691,4.83903893 L10.7789691,4.83903893 Z M17.747102,4.83903893 L17.8296192,4.92345024 L17.8296192,4.92345024 L17.7824108,4.882 L17.747102,4.83903893 Z" id="Shape"></path>
                </g>
            </g>
        </g>
    </g>
</svg>